<svg width="24" height="24" viewBox="0 0 24 24" fill="none" xmlns="http://www.w3.org/2000/svg">
<g clip-path="url(#clip0_111_2)">
<path d="M22.258 11.982C22.258 6.31401 17.648 1.70401 11.982 1.70401C10.158 1.70401 8.445 2.18401 6.957 3.02101L6.143 1.53301C7.87483 0.558359 9.82296 0.0323964 11.81 0.00300598H12.005C18.59 0.013006 23.928 5.31001 24 11.885V12C23.9986 13.6341 23.6629 15.2506 23.0138 16.7502C22.3646 18.2498 21.4155 19.6007 20.225 20.72L19.04 19.44C20.0564 18.4817 20.8662 17.3256 21.4196 16.0429C21.973 14.7603 22.2583 13.378 22.258 11.981V11.982ZM3.638 3.40501L4.792 4.64501C3.81401 5.60023 3.03698 6.74145 2.50665 8.00149C1.97633 9.26152 1.70342 10.6149 1.704 11.982C1.704 17.648 6.314 22.258 11.98 22.258C13.763 22.258 15.44 21.802 16.902 21L17.756 22.522C15.9923 23.491 14.0124 23.9987 12 23.998C5.374 23.998 -0.000999451 18.625 -0.000999451 11.998C-0.000454712 10.3951 0.321818 8.80868 0.946726 7.33264C1.57163 5.8566 2.48646 4.52101 3.637 3.40501H3.638ZM22.037 11.982C22.0371 13.3481 21.758 14.6998 21.2171 15.9543C20.6761 17.2087 19.8845 18.3394 18.891 19.277L17.711 18.001C18.5281 17.2258 19.1788 16.2924 19.6234 15.2576C20.068 14.2228 20.2972 13.1083 20.297 11.982C20.297 7.39601 16.567 3.66701 11.982 3.66701C10.499 3.66701 9.107 4.05801 7.9 4.74201L7.065 3.21601C8.56515 2.36885 10.2592 1.92476 11.982 1.92701C17.525 1.92501 22.037 6.43701 22.037 11.982ZM3.667 11.982C3.667 16.568 7.397 20.297 11.982 20.297C13.3659 20.2987 14.7282 19.9531 15.944 19.292L16.796 20.808C15.3202 21.6159 13.6645 22.0386 11.982 22.037C6.439 22.037 1.927 17.525 1.927 11.982C1.927 9.17401 3.084 6.63501 4.944 4.80901L6.127 6.08301C5.34665 6.8543 4.72734 7.77297 4.30503 8.78564C3.88273 9.79832 3.66585 10.8848 3.667 11.982V11.982ZM5.615 11.982C5.61659 13.6695 6.28773 15.2875 7.48108 16.4806C8.67443 17.6738 10.2925 18.3447 11.98 18.346C13.0292 18.3471 14.0622 18.0873 14.986 17.59L15.834 19.097C14.6514 19.7402 13.3262 20.0762 11.98 20.074C7.516 20.074 3.885 16.444 3.885 11.98C3.88428 10.9131 4.09514 9.85658 4.50538 8.87167C4.91562 7.88675 5.51709 6.99296 6.275 6.24201L7.454 7.50901C6.27554 8.69943 5.61464 10.3069 5.615 11.982V11.982ZM20.074 11.982C20.074 14.283 19.107 16.364 17.559 17.84L16.386 16.57C17.0058 15.9774 17.4991 15.2653 17.8359 14.4768C18.1728 13.6882 18.3463 12.8395 18.346 11.982C18.3444 10.2947 17.6734 8.67687 16.4803 7.48373C15.2871 6.2906 13.6694 5.61959 11.982 5.61801C10.8791 5.61724 9.79519 5.90511 8.838 6.45301L8.008 4.93601C9.21976 4.24893 10.589 3.88784 11.982 3.88801C16.443 3.88801 20.074 7.51801 20.074 11.982ZM7.544 11.982C7.54427 13.1589 8.01196 14.2874 8.84421 15.1195C9.67647 15.9516 10.8051 16.419 11.982 16.419C12.7001 16.4193 13.4076 16.2446 14.043 15.91L14.878 17.398C13.9876 17.876 12.9926 18.1257 11.982 18.125C10.3533 18.1234 8.79169 17.4757 7.64 16.324C6.48831 15.1723 5.84059 13.6107 5.839 11.982C5.83797 10.3692 6.4733 8.82112 7.607 7.67401L8.769 8.92401C7.98312 9.74813 7.54479 10.8432 7.545 11.982H7.544ZM18.125 11.982C18.1256 12.8089 17.9585 13.6273 17.634 14.3878C17.3095 15.1483 16.8343 15.8352 16.237 16.407L15.08 15.157L15.066 15.171C15.4948 14.7584 15.8359 14.2634 16.0687 13.7158C16.3015 13.1681 16.4214 12.5791 16.421 11.984C16.4211 11.4013 16.3065 10.8243 16.0835 10.2859C15.8606 9.7475 15.5338 9.25832 15.1217 8.84628C14.7097 8.43424 14.2205 8.10742 13.6821 7.88449C13.1437 7.66155 12.5667 7.54687 11.984 7.54701C11.2051 7.5466 10.44 7.75296 9.767 8.14501L8.947 6.64701C9.87153 6.11762 10.9186 5.83972 11.984 5.84101C15.368 5.83601 18.125 8.59401 18.125 11.982V11.982ZM11.445 11.982C11.4533 12.1188 11.5136 12.2472 11.6134 12.3411C11.7131 12.4349 11.845 12.4872 11.982 12.4872C12.119 12.4872 12.2509 12.4349 12.3506 12.3411C12.4504 12.2472 12.5107 12.1188 12.519 11.982C12.519 11.8395 12.4624 11.7027 12.3616 11.6019C12.2608 11.5011 12.1241 11.4445 11.9815 11.4445C11.8389 11.4445 11.7022 11.5011 11.6014 11.6019C11.5006 11.7027 11.444 11.8395 11.444 11.982H11.445ZM15.385 11.982C15.385 11.0801 15.0267 10.2152 14.389 9.57749C13.7513 8.93977 12.8864 8.58151 11.9845 8.58151C11.0826 8.58151 10.2177 8.93977 9.57998 9.57749C8.94227 10.2152 8.584 11.0801 8.584 11.982C8.584 12.8837 8.94221 13.7485 9.57984 14.3862C10.2175 15.0238 11.0823 15.382 11.984 15.382C12.8857 15.382 13.7505 15.0238 14.3882 14.3862C15.0258 13.7485 15.384 12.8837 15.384 11.982H15.385ZM15.236 11.982C15.2349 12.8442 14.892 13.6707 14.2823 14.2803C13.6727 14.89 12.8462 15.2329 11.984 15.234C11.1214 15.2337 10.2942 14.8911 9.68407 14.2813C9.07394 13.6716 8.73079 12.8446 8.73 11.982C8.73 11.5548 8.81414 11.1318 8.97762 10.7371C9.1411 10.3425 9.38071 9.98386 9.68278 9.68179C9.98485 9.37972 10.3435 9.1401 10.7381 8.97663C11.1328 8.81315 11.5558 8.72901 11.983 8.72901C12.4102 8.72901 12.8332 8.81315 13.2279 8.97663C13.6225 9.1401 13.9811 9.37972 14.2832 9.68179C14.5853 9.98386 14.8249 10.3425 14.9884 10.7371C15.1519 11.1318 15.236 11.5548 15.236 11.982V11.982Z" fill="#222222"/>
</g>
<defs>
<clipPath id="clip0_111_2">
<rect width="24" height="24" fill="white"/>
</clipPath>
</defs>
</svg>
