<svg width="24" height="24" viewBox="0 0 24 24" fill="none" xmlns="http://www.w3.org/2000/svg">
<path d="M14.69 6.71001C14.7827 6.80252 14.8563 6.91241 14.9064 7.03338C14.9566 7.15436 14.9825 7.28404 14.9825 7.41501C14.9825 7.54598 14.9566 7.67566 14.9064 7.79663C14.8563 7.9176 14.7827 8.02749 14.69 8.12001L10.81 12L14.69 15.88C14.877 16.067 14.982 16.3206 14.982 16.585C14.982 16.8494 14.877 17.103 14.69 17.29C14.503 17.477 14.2494 17.582 13.985 17.582C13.7206 17.582 13.467 17.477 13.28 17.29L8.69001 12.7C8.5973 12.6075 8.52376 12.4976 8.47358 12.3766C8.42339 12.2557 8.39756 12.126 8.39756 11.995C8.39756 11.864 8.42339 11.7344 8.47358 11.6134C8.52376 11.4924 8.5973 11.3825 8.69001 11.29L13.28 6.70001C13.66 6.32001 14.3 6.32001 14.69 6.71001Z" fill="#699BF7"/>
</svg>
